<?xml version="1.0" encoding="iso-8859-1"?>
<!-- Generator: Adobe Illustrator 19.0.0, SVG Export Plug-In . SVG Version: 6.00 Build 0)  -->
<svg version="1.1" id="Layer_1" xmlns="http://www.w3.org/2000/svg" xmlns:xlink="http://www.w3.org/1999/xlink" x="0px" y="0px"
	 viewBox="0 0 512 512" style="enable-background:new 0 0 512 512;" xml:space="preserve">
	 <style>
		/* <![CDATA[ */
		path {
			fill: #ff4346;
		}
		/* ]]> */
	</style>
<g>
	<g>
		<path d="M510.764,486.881L316.69,179.04c-1.469-2.328-4.029-3.741-6.781-3.741H202.09c-2.753,0-5.313,1.413-6.781,3.741
			L1.235,486.881c-1.557,2.47-1.648,5.591-0.238,8.148c1.411,2.557,4.099,4.144,7.019,4.144h495.967c2.92,0,5.608-1.587,7.019-4.144
			C512.412,492.472,512.321,489.351,510.764,486.881z M206.513,191.332h98.973l38.411,60.927H168.102L206.513,191.332z
			 M157.994,268.292h196.011l38.411,60.927H119.584L157.994,268.292z M109.529,345.168c0.361,0.049,0.727,0.084,1.101,0.084h290.739
			c0.374,0,0.74-0.034,1.101-0.084l38.463,61.011H71.065L109.529,345.168z M22.547,483.14l38.411-60.927h390.084l38.411,60.927
			H22.547z"/>
	</g>
</g>
<g>
	<g>
		<path d="M503.983,123.991H303.549l-40.769-64.668c-1.469-2.329-4.029-3.741-6.781-3.741c-2.752,0-5.313,1.412-6.781,3.741
			l-53.91,85.511c-1.557,2.47-1.648,5.59-0.238,8.148c1.411,2.557,4.1,4.144,7.019,4.144h107.818c2.919,0,5.608-1.587,7.019-4.144
			c1.41-2.557,1.319-5.678-0.238-8.148l-3.032-4.81h190.326c4.427,0,8.017-3.589,8.017-8.017
			C512,127.581,508.41,123.991,503.983,123.991z M216.622,141.094L256,78.631l39.378,62.463H216.622z"/>
	</g>
</g>
<g>
	<g>
		<path d="M486.881,55.582h-85.512c-4.427,0-8.017,3.589-8.017,8.017s3.589,8.017,8.017,8.017h85.512
			c4.427,0,8.017-3.589,8.017-8.017S491.308,55.582,486.881,55.582z"/>
	</g>
</g>
<g>
	<g>
		<path d="M452.676,21.378h-51.307c-4.427,0-8.017,3.589-8.017,8.017s3.589,8.017,8.017,8.017h51.307
			c4.427,0,8.017-3.589,8.017-8.017S457.103,21.378,452.676,21.378z"/>
	</g>
</g>
<g>
	<g>
		<path d="M418.471,89.787h-17.102c-4.427,0-8.017,3.589-8.017,8.017s3.589,8.017,8.017,8.017h17.102
			c4.427,0,8.017-3.589,8.017-8.017S422.899,89.787,418.471,89.787z"/>
	</g>
</g>
<g>
	<g>
		<path d="M469.778,89.787h-17.102c-4.427,0-8.017,3.589-8.017,8.017s3.589,8.017,8.017,8.017h17.102
			c4.427,0,8.017-3.589,8.017-8.017S474.206,89.787,469.778,89.787z"/>
	</g>
</g>
<g>
	<g>
		<path d="M343.658,55.874c-16.546-4.595-19.783-7.702-19.783-11.515c0-2.122,6.663-6.948,17.637-6.948
			c9.667,0,16.39,3.764,17.528,6.482c1.709,4.084,6.406,6.01,10.489,4.301c4.084-1.709,6.01-6.405,4.301-10.489
			c-3.346-7.997-12.665-13.839-24.302-15.696v-1.166c0-4.427-3.589-8.017-8.017-8.017c-4.427,0-8.017,3.589-8.017,8.017v1.143
			c-15.067,2.33-25.653,11.171-25.653,22.373c0.001,18.208,18.972,23.477,31.526,26.965c16.545,4.595,19.782,7.702,19.782,11.515
			c0,2.122-6.664,6.948-17.637,6.948c-9.667,0-16.39-3.764-17.528-6.482c-1.709-4.084-6.405-6.01-10.489-4.301
			c-4.084,1.709-6.01,6.405-4.301,10.489c3.346,7.997,12.665,13.839,24.302,15.696v1.166c0,4.427,3.589,8.017,8.017,8.017
			s8.017-3.589,8.017-8.017v-1.143c15.067-2.33,25.653-11.171,25.653-22.373C375.182,64.632,356.212,59.362,343.658,55.874z"/>
	</g>
</g>
<g>
</g>
<g>
</g>
<g>
</g>
<g>
</g>
<g>
</g>
<g>
</g>
<g>
</g>
<g>
</g>
<g>
</g>
<g>
</g>
<g>
</g>
<g>
</g>
<g>
</g>
<g>
</g>
<g>
</g>
</svg>
