<?xml version="1.0" encoding="iso-8859-1"?>
<!-- Generator: Adobe Illustrator 19.0.0, SVG Export Plug-In . SVG Version: 6.00 Build 0)  -->
<svg version="1.1" id="Layer_1" xmlns="http://www.w3.org/2000/svg" xmlns:xlink="http://www.w3.org/1999/xlink" x="0px" y="0px"
	 viewBox="0 0 512 512" style="enable-background:new 0 0 512 512;" xml:space="preserve">
	 <style>
		/* <![CDATA[ */
		path {
			fill: #ff4346;
		}
		/* ]]> */
	</style>
<g>
	<g>
		<path d="M384.267,34.204h-120.25V8.017C264.017,3.589,260.427,0,256,0c-4.427,0-8.017,3.589-8.017,8.017v26.188h-120.25
			c-13.851,0-25.119,11.268-25.119,25.119v307.84c0,13.851,11.268,25.119,25.119,25.119h39.149l-46.518,108.54
			c-1.744,4.07,0.141,8.782,4.21,10.526c1.029,0.441,2.1,0.65,3.154,0.65c3.11,0,6.069-1.821,7.372-4.86l27.236-63.55h187.325
			l27.235,63.551c1.303,3.04,4.262,4.86,7.372,4.86c1.054,0,2.125-0.208,3.154-0.65c4.069-1.744,5.955-6.457,4.21-10.526
			l-46.517-108.541h39.149c13.851,0,25.119-11.268,25.119-25.119V59.323C409.386,45.473,398.117,34.204,384.267,34.204z
			 M169.209,427.556l15.117-35.273h143.348l15.116,35.273H169.209z M393.352,367.163c0,5.01-4.076,9.086-9.086,9.086H127.733
			c-5.01,0-9.086-4.076-9.086-9.086V59.323c0-5.01,4.076-9.086,9.086-9.086h256.533c5.01,0,9.086,4.076,9.086,9.086V367.163z"/>
	</g>
</g>
<g>
	<g>
		<path d="M375.142,126.94c-0.011-0.113-0.033-0.224-0.048-0.337c-0.021-0.146-0.039-0.294-0.067-0.439
			c-0.026-0.13-0.062-0.257-0.094-0.385c-0.031-0.125-0.059-0.251-0.096-0.375c-0.038-0.126-0.085-0.247-0.129-0.371
			c-0.044-0.124-0.084-0.248-0.136-0.37c-0.048-0.115-0.105-0.227-0.157-0.339c-0.059-0.124-0.113-0.249-0.179-0.371
			c-0.059-0.11-0.126-0.214-0.189-0.321c-0.071-0.118-0.137-0.237-0.214-0.352c-0.08-0.12-0.169-0.232-0.255-0.346
			c-0.071-0.094-0.136-0.191-0.212-0.282c-0.336-0.409-0.711-0.785-1.119-1.119c-0.089-0.074-0.184-0.137-0.275-0.205
			c-0.118-0.089-0.233-0.18-0.355-0.261c-0.111-0.074-0.226-0.138-0.34-0.206c-0.111-0.066-0.219-0.136-0.335-0.198
			c-0.115-0.062-0.234-0.114-0.352-0.17c-0.12-0.057-0.236-0.115-0.359-0.167c-0.114-0.047-0.231-0.086-0.346-0.127
			c-0.13-0.047-0.26-0.097-0.394-0.138c-0.114-0.034-0.231-0.06-0.347-0.089c-0.138-0.035-0.274-0.074-0.414-0.102
			c-0.13-0.026-0.262-0.041-0.392-0.06c-0.128-0.019-0.253-0.043-0.384-0.056c-0.231-0.022-0.462-0.032-0.693-0.035
			c-0.032,0-0.063-0.005-0.095-0.005H324.41c-4.427,0-8.017,3.589-8.017,8.017s3.589,8.017,8.017,8.017h23.402l-88.409,88.409
			c-0.208,0.21-0.547,0.207-0.757,0l-22.111-22.111c-3.13-3.13-7.29-4.854-11.715-4.854c-4.425,0-8.586,1.723-11.715,4.853
			l-73.936,73.936c-3.131,3.131-3.131,8.207,0,11.337c1.565,1.565,3.617,2.348,5.668,2.348c2.051,0,4.104-0.782,5.668-2.348
			l73.936-73.936c0.039-0.038,0.157-0.156,0.378-0.156s0.339,0.118,0.378,0.156l22.112,22.112c6.46,6.459,16.971,6.458,23.43,0
			l88.409-88.409v23.402c0,4.427,3.589,8.017,8.017,8.017c4.427,0,8.017-3.589,8.017-8.017v-42.752
			C375.181,127.469,375.167,127.204,375.142,126.94z"/>
	</g>
</g>
<g>
	<g>
		<path d="M256,265.084c-4.427,0-8.017,3.589-8.017,8.017v59.858c0,4.427,3.589,8.017,8.017,8.017c4.427,0,8.017-3.589,8.017-8.017
			v-59.858C264.017,268.674,260.427,265.084,256,265.084z"/>
	</g>
</g>
<g>
	<g>
		<path d="M221.796,247.982c-4.427,0-8.017,3.589-8.017,8.017v76.96c0,4.427,3.589,8.017,8.017,8.017
			c4.427,0,8.017-3.589,8.017-8.017v-76.96C229.812,251.572,226.223,247.982,221.796,247.982z"/>
	</g>
</g>
<g>
	<g>
		<path d="M290.204,247.982c-4.427,0-8.017,3.589-8.017,8.017v76.96c0,4.427,3.589,8.017,8.017,8.017
			c4.427,0,8.017-3.589,8.017-8.017v-76.96C298.221,251.572,294.632,247.982,290.204,247.982z"/>
	</g>
</g>
<g>
	<g>
		<path d="M324.409,213.778c-4.427,0-8.017,3.589-8.017,8.017v111.164c0,4.427,3.589,8.017,8.017,8.017
			c4.427,0,8.017-3.589,8.017-8.017V221.794C332.426,217.367,328.836,213.778,324.409,213.778z"/>
	</g>
</g>
<g>
	<g>
		<path d="M358.613,196.676c-4.427,0-8.017,3.589-8.017,8.017v128.267c0,4.427,3.589,8.017,8.017,8.017s8.017-3.589,8.017-8.017
			V204.692C366.63,200.265,363.041,196.676,358.613,196.676z"/>
	</g>
</g>
<g>
	<g>
		<path d="M187.591,282.187c-4.427,0-8.017,3.589-8.017,8.017v42.756c0,4.427,3.589,8.017,8.017,8.017
			c4.427,0,8.017-3.589,8.017-8.017v-42.756C195.608,285.776,192.018,282.187,187.591,282.187z"/>
	</g>
</g>
<g>
	<g>
		<path d="M153.387,307.84c-4.427,0-8.017,3.589-8.017,8.017v17.102c0,4.427,3.589,8.017,8.017,8.017
			c4.427,0,8.017-3.589,8.017-8.017v-17.102C161.403,311.429,157.814,307.84,153.387,307.84z"/>
	</g>
</g>
<g>
	<g>
		<path d="M332.96,85.511H179.04c-4.427,0-8.017,3.589-8.017,8.017c0,4.427,3.589,8.017,8.017,8.017h153.92
			c4.427,0,8.017-3.589,8.017-8.017C340.977,89.1,337.387,85.511,332.96,85.511z"/>
	</g>
</g>
<g>
	<g>
		<path d="M290.204,119.716h-68.409c-4.427,0-8.017,3.589-8.017,8.017s3.589,8.017,8.017,8.017h68.409
			c4.427,0,8.017-3.589,8.017-8.017S294.632,119.716,290.204,119.716z"/>
	</g>
</g>
<g>
</g>
<g>
</g>
<g>
</g>
<g>
</g>
<g>
</g>
<g>
</g>
<g>
</g>
<g>
</g>
<g>
</g>
<g>
</g>
<g>
</g>
<g>
</g>
<g>
</g>
<g>
</g>
<g>
</g>
</svg>
