<?xml version="1.0" encoding="iso-8859-1"?>
<!-- Generator: Adobe Illustrator 18.0.0, SVG Export Plug-In . SVG Version: 6.00 Build 0)  -->
<!DOCTYPE svg PUBLIC "-//W3C//DTD SVG 1.1//EN" "http://www.w3.org/Graphics/SVG/1.1/DTD/svg11.dtd">
<svg version="1.1" id="Capa_1" xmlns="http://www.w3.org/2000/svg" xmlns:xlink="http://www.w3.org/1999/xlink" x="0px" y="0px"
	 viewBox="0 0 474.468 474.468" style="enable-background:new 0 0 474.468 474.468;" xml:space="preserve">
	 <style>
		/* <![CDATA[ */
		path {
			fill: #e95254;
		}
		/* ]]> */
	</style>
<g>
	<path d="M279.96,190.593c-0.008,0-0.016,0-0.024,0c-4.122,0-7.473,3.342-7.5,7.467c-0.095,14.988,7.164,29.075,19.169,37.777
		l-0.029,4.611c-0.026,4.142,3.311,7.521,7.453,7.547c0.016,0,0.032,0,0.048,0c3.49,0,6.421-2.391,7.254-5.629
		c0.341,0.019,0.683,0.034,1.025,0.034c3.177,0,6.358-0.827,9.265-2.481c5.884-3.349,9.421-9.39,9.462-16.161l0.041-6.925
		c0.083-13.919-7.262-26.935-19.183-34.085l0.144-22.877c2.797,4.781,4.342,10.291,4.306,15.996
		c-0.026,4.142,3.311,7.521,7.453,7.547c0.016,0,0.032,0,0.048,0c4.12,0,7.473-3.327,7.499-7.453
		c0.094-14.989-7.163-29.074-19.169-37.777l0.029-4.662c0.026-4.142-3.311-7.521-7.453-7.547c-0.016,0-0.032,0-0.048,0
		c-3.508,0-6.452,2.415-7.268,5.679c-3.514-0.196-7.066,0.614-10.284,2.446c-5.882,3.348-9.418,9.387-9.461,16.154l-0.044,6.924
		c-0.088,13.927,7.261,26.953,19.193,34.105l-0.144,22.861c-2.798-4.787-4.342-10.309-4.306-16.038v-0.028
		C287.437,193.946,284.094,190.606,279.96,190.593z M311.125,216.744l-0.041,6.924c-0.012,1.941-1.32,2.895-1.882,3.214
		c-0.425,0.242-1.379,0.662-2.542,0.432l0.155-24.552C309.594,206.819,311.155,211.684,311.125,216.744z M287.695,157.273
		l0.044-6.924c0.012-1.94,1.319-2.893,1.881-3.212c0.426-0.242,1.382-0.664,2.549-0.43l-0.155,24.569
		C289.227,167.214,287.663,162.342,287.695,157.273z"/>
	<path d="M440.064,130.33C440.03,130.31,216.112,1.005,216.112,1.005c-2.32-1.34-5.18-1.34-7.5,0l-24.894,14.373l0,0.001
		c-0.004,0.002-0.008,0.004-0.012,0.006c-2.314,1.341-3.739,3.814-3.738,6.489l0.021,196.644L34.506,302.512
		c-2.32,1.339-3.75,3.815-3.75,6.495l0,0h0v28.746c0,2.68,1.43,5.156,3.75,6.496l223.85,129.214c1.16,0.669,2.455,1.004,3.75,1.004
		c1.294,0,2.589-0.335,3.75-1.004l174.105-100.498c2.321-1.34,3.75-3.816,3.75-6.496V136.765
		C443.712,134.128,442.326,131.685,440.064,130.33z M212.361,16.161l208.429,120.36l-9.331,5.001L202.513,21.846L212.361,16.161z
		 M194.989,218.517l-0.02-183.705l208.87,119.631v184.655L194.989,218.517z M187.49,231.508l208.851,120.582l-134.234,77.522
		l-59.612-34.424l13.62-7.86c2.32-1.339,3.75-3.815,3.751-6.494c0-2.68-1.428-5.156-3.749-6.496l-74.624-43.105
		c-2.321-1.341-5.182-1.341-7.502,0l-21.122,12.199l-59.612-34.424L187.49,231.508z M187.494,386.526l-59.629-34.434l9.876-5.704
		l59.625,34.441L187.494,386.526z M428.712,362.139l-166.605,96.169L45.756,333.423v-11.424l212.6,122.768
		c1.16,0.67,2.456,1.005,3.75,1.005s2.59-0.335,3.751-1.005l149.233-86.184c2.32-1.34,3.749-3.816,3.749-6.495h0V154.585
		l9.873-5.291V362.139z"/>
	<path d="M390.218,158.99L216.112,58.446c-2.319-1.34-5.179-1.34-7.5-0.001c-2.321,1.34-3.75,3.816-3.75,6.496v143.57
		c0,2.68,1.43,5.155,3.75,6.495l174.105,100.52c1.16,0.67,2.455,1.005,3.75,1.005s2.59-0.335,3.75-1.005
		c2.32-1.34,3.75-3.815,3.75-6.495V165.485C393.967,162.806,392.538,160.33,390.218,158.99z M378.967,296.04l-159.105-91.86V77.932
		l159.105,91.882V296.04z"/>
	<path d="M283.228,401.687c1.161,0.67,2.455,1.005,3.75,1.005c1.295,0,2.591-0.335,3.751-1.006l74.617-43.104
		c2.32-1.34,3.749-3.816,3.749-6.496c0-2.679-1.43-5.155-3.75-6.494L191.239,245.095c-2.319-1.338-5.178-1.338-7.498,0
		l-74.638,43.069c-2.321,1.339-3.751,3.815-3.751,6.495s1.429,5.156,3.75,6.496L283.228,401.687z M311.841,372.168l-159.107-91.863
		l9.874-5.698l159.101,91.86L311.841,372.168z M187.489,260.25l159.108,91.84l-9.892,5.714L177.612,265.95L187.489,260.25z
		 M137.73,288.963l159.115,91.867l-9.868,5.701l-159.123-91.87L137.73,288.963z"/>
</g>
<g>
</g>
<g>
</g>
<g>
</g>
<g>
</g>
<g>
</g>
<g>
</g>
<g>
</g>
<g>
</g>
<g>
</g>
<g>
</g>
<g>
</g>
<g>
</g>
<g>
</g>
<g>
</g>
<g>
</g>
</svg>
