<?xml version="1.0" encoding="iso-8859-1"?>
<!-- Generator: Adobe Illustrator 18.0.0, SVG Export Plug-In . SVG Version: 6.00 Build 0)  -->
<!DOCTYPE svg PUBLIC "-//W3C//DTD SVG 1.1//EN" "http://www.w3.org/Graphics/SVG/1.1/DTD/svg11.dtd">
<svg version="1.1" id="Capa_1" xmlns="http://www.w3.org/2000/svg" xmlns:xlink="http://www.w3.org/1999/xlink" x="0px" y="0px"
	 viewBox="0 0 470.996 470.996" style="enable-background:new 0 0 470.996 470.996;" xml:space="preserve">
<g>
	<path d="M409.683,185.51L90.117,1.005c-2.32-1.34-5.18-1.34-7.5,0l-21.304,12.3c-2.32,1.34-3.75,3.815-3.75,6.495v246.005
		c0,2.679,1.43,5.155,3.75,6.495l81.37,46.985v55.232c0,4.142,3.357,7.5,7.5,7.5s7.5-3.358,7.5-7.5v-46.57l134.324,77.561v57.989
		c0,4.142,3.357,7.5,7.5,7.5s7.5-3.358,7.5-7.5v-49.327l73.87,42.654c1.16,0.67,2.455,1.005,3.75,1.005s2.59-0.335,3.75-1.005
		c0.002-0.001,0.003-0.002,0.005-0.003v0l21.287-12.311c2.317-1.341,3.745-3.815,3.745-6.492l0.018-246.012
		C413.433,189.326,412.003,186.85,409.683,185.51z M377.128,437.336L72.563,261.475V32.791l304.564,175.845V437.336z
		 M398.415,433.69l-6.287,3.636V204.305c0-2.68-1.43-5.155-3.75-6.495L80.063,19.8l6.304-3.64l312.065,180.175L398.415,433.69z"/>
	<path d="M111.424,247.719l37.229-21.511l38.568,44.509c1.432,1.652,3.504,2.588,5.667,2.588c0.237,0,0.476-0.011,0.714-0.034
		c2.414-0.23,4.568-1.614,5.782-3.715l37.099-64.241l35.753,44.977c2.444,3.074,6.847,3.742,10.093,1.532l42.593-29.011
		c3.424-2.332,4.309-6.998,1.978-10.421c-2.333-3.423-6.998-4.308-10.421-1.977l-36.835,25.089l-38.273-48.148
		c-1.545-1.943-3.968-2.995-6.425-2.813c-2.476,0.184-4.7,1.58-5.941,3.729l-37.343,64.663l-35.729-41.232
		c-2.354-2.717-6.306-3.382-9.42-1.582l-42.592,24.611c-3.587,2.072-4.814,6.66-2.742,10.246
		C103.25,248.565,107.838,249.792,111.424,247.719z"/>
	<path d="M82.6,260.011l276.975,159.911c1.16,0.67,2.455,1.005,3.75,1.005s2.59-0.335,3.75-1.005c2.32-1.34,3.75-3.815,3.75-6.495
		V216.605c0-2.68-1.43-5.156-3.75-6.496L90.099,50.216c-2.32-1.339-5.18-1.339-7.5,0s-3.75,3.816-3.75,6.495l0.001,196.804
		C78.85,256.195,80.279,258.671,82.6,260.011z M355.824,220.936v179.501L93.85,249.186L93.849,69.702L355.824,220.936z"/>
</g>
<g>
</g>
<g>
</g>
<g>
</g>
<g>
</g>
<g>
</g>
<g>
</g>
<g>
</g>
<g>
</g>
<g>
</g>
<g>
</g>
<g>
</g>
<g>
</g>
<g>
</g>
<g>
</g>
<g>
</g>
</svg>
