<?xml version="1.0" encoding="iso-8859-1"?>
<!-- Generator: Adobe Illustrator 18.0.0, SVG Export Plug-In . SVG Version: 6.00 Build 0)  -->
<!DOCTYPE svg PUBLIC "-//W3C//DTD SVG 1.1//EN" "http://www.w3.org/Graphics/SVG/1.1/DTD/svg11.dtd">
<svg version="1.1" id="Capa_1" xmlns="http://www.w3.org/2000/svg" xmlns:xlink="http://www.w3.org/1999/xlink" x="0px" y="0px"
	 viewBox="0 0 463.686 463.686" style="enable-background:new 0 0 463.686 463.686;" xml:space="preserve">
<path d="M371.985,404.526l-22.128-268.094c-0.202-2.457-1.608-4.64-3.731-5.867l0.007-0.012l-40.562-23.418V77.218
	c0-14.896-3.925-29.589-11.35-42.491c-7.423-12.899-18.152-23.678-31.033-31.174c-8.122-4.719-17.832-4.738-25.97-0.053
	c-8.139,4.684-12.997,13.087-12.997,22.479v34.19L191.37,41.202c-2.318-1.339-5.178-1.34-7.498-0.001L117.52,79.488l0.007,0.011
	c-2.125,1.226-3.531,3.41-3.733,5.869L91.702,353.443c-0.238,2.891,1.212,5.661,3.725,7.111l176.889,102.127
	c1.16,0.67,2.455,1.005,3.75,1.005c1.294,0,2.589-0.335,3.749-1.004v0l88.445-51.043
	C370.773,410.188,372.223,407.418,371.985,404.526z M276.064,166.696l-36.721-21.201v-2.047c0-30.238-16.239-58.465-42.38-73.664
	c-0.605-0.352-1.221-0.669-1.843-0.969v-8.127l132.265,76.363L276.064,166.696z M180.12,66.526
	c-3.145,0.477-6.235,1.535-9.127,3.198c-8.142,4.684-13.002,13.088-13.002,22.48v6.322l-21.721-12.54l43.85-25.302V66.526z
	 M172.992,92.205c0-3.96,2.05-7.504,5.482-9.479c0.533-0.307,1.086-0.549,1.646-0.76v29.336l-7.129-4.116V92.205z M195.12,86.449
	c16.34,11.771,26.917,30.149,28.887,50.191l-28.887-16.678V86.449z M239.221,25.978c0-3.96,2.048-7.503,5.479-9.478
	c3.436-1.976,7.53-1.966,10.948,0.02c10.612,6.176,19.455,15.059,25.573,25.689c6.116,10.629,9.35,22.735,9.35,35.009v21.257
	l-51.35-29.647V25.978z M268.565,443.196L107.041,349.94L127.77,98.398l30.222,17.448v46.733c0,4.142,3.357,7.5,7.5,7.5
	s7.5-3.358,7.5-7.5v-38.073l51.352,29.648v46.723c0,4.142,3.357,7.5,7.5,7.5s7.5-3.358,7.5-7.5v-38.063l29.222,16.871V443.196z
	 M283.565,443.198V179.685l52.316-30.22l20.764,251.558L283.565,443.198z"/>
<g>
</g>
<g>
</g>
<g>
</g>
<g>
</g>
<g>
</g>
<g>
</g>
<g>
</g>
<g>
</g>
<g>
</g>
<g>
</g>
<g>
</g>
<g>
</g>
<g>
</g>
<g>
</g>
<g>
</g>
</svg>
