<?xml version="1.0" encoding="iso-8859-1"?>
<!-- Generator: Adobe Illustrator 18.0.0, SVG Export Plug-In . SVG Version: 6.00 Build 0)  -->
<!DOCTYPE svg PUBLIC "-//W3C//DTD SVG 1.1//EN" "http://www.w3.org/Graphics/SVG/1.1/DTD/svg11.dtd">
<svg version="1.1" id="Capa_1" xmlns="http://www.w3.org/2000/svg" xmlns:xlink="http://www.w3.org/1999/xlink" x="0px" y="0px"
	 viewBox="0 0 485.042 485.042" style="enable-background:new 0 0 485.042 485.042;" xml:space="preserve">
<g>
	<path d="M342.051,97.79L174.414,1.005c-2.323-1.341-5.185-1.34-7.505,0.003l-23.92,13.835l-0.004,0.002l0,0
		c-2.318,1.34-3.745,3.814-3.745,6.492v359.42c0,2.679,1.429,5.155,3.75,6.495l167.593,96.785c1.161,0.67,2.456,1.005,3.751,1.005
		s3.75-1.005,3.75-1.005l0,0l23.945-13.825c2.32-1.34,3.75-3.815,3.75-6.495l0.021-359.432
		C345.801,101.606,344.371,99.13,342.051,97.79z M170.668,16.162l152.633,88.123l-8.945,5.165L161.731,21.331L170.668,16.162z
		 M306.854,160.303L154.241,72.188V34.328l152.615,88.112L306.854,160.303z M154.241,89.509l152.612,88.114l-0.014,231.635
		l-152.598-88.107V89.509z M154.241,376.428v-37.956l152.597,88.106l-0.002,37.972L154.241,376.428z M321.836,464.551l0.021-342.111
		l8.944-5.164l-0.02,342.111L321.836,464.551z"/>
	<path d="M214.831,96.958l23.945,13.802c1.18,0.68,2.468,1.003,3.739,1.003c2.593,0,5.117-1.348,6.504-3.756
		c2.068-3.589,0.837-8.175-2.752-10.243l-23.945-13.803c-3.588-2.067-8.174-0.835-10.243,2.752
		C210.01,90.304,211.242,94.89,214.831,96.958z"/>
</g>
<g>
</g>
<g>
</g>
<g>
</g>
<g>
</g>
<g>
</g>
<g>
</g>
<g>
</g>
<g>
</g>
<g>
</g>
<g>
</g>
<g>
</g>
<g>
</g>
<g>
</g>
<g>
</g>
<g>
</g>
</svg>
