<svg id="Слой_1" data-name="Слой 1" xmlns="http://www.w3.org/2000/svg" viewBox="0 0 524 303.28"><defs><style>.cls-1{fill:#e95254;}</style></defs><title>GO VIRAL logo (empty inside)</title><path class="cls-1" d="M561.28,287.21v-6.6a5.92,5.92,0,0,0-.34-2.4,1.3,1.3,0,0,0-1.29-.68,2.18,2.18,0,0,0-2.11,1.6v8.08h-3.16V275.07h2.45l.36,1.6h.1a4.31,4.31,0,0,1,3.64-1.94,3,3,0,0,1,3.06,2.06,3.91,3.91,0,0,1,3.54-2.06,3.47,3.47,0,0,1,2.92,1.12q.86,1.12.86,4.08v7.28h-3.16v-6.82a5.34,5.34,0,0,0-.33-2.2,1.33,1.33,0,0,0-1.32-.67,2.07,2.07,0,0,0-2.09,1.72v8Z" transform="translate(-249.5 -232.4)"/><path class="cls-1" d="M575.68,275.77a12.31,12.31,0,0,1,5.1-.95,4.43,4.43,0,0,1,3.39,1.08,4.56,4.56,0,0,1,1,3.17q0,.83-.08,2.44t-.09,2.39a10.7,10.7,0,0,0,.44,3.33h-2.57l-.51-1.68h-.12a4,4,0,0,1-3.57,1.85,3.72,3.72,0,0,1-2.69-1,3.4,3.4,0,0,1-1-2.56q0-3.91,6.14-3.91c.4,0,.71,0,.92,0a5.68,5.68,0,0,0,0-.83,1.75,1.75,0,0,0-.42-1.32,2.09,2.09,0,0,0-1.45-.4,8.91,8.91,0,0,0-3.74.7Zm6.34,7.7v-1.58q-.63,0-.92,0-2.91,0-2.91,1.53a1.38,1.38,0,0,0,.4,1.06,1.55,1.55,0,0,0,1.1.38A2.43,2.43,0,0,0,582,283.47Z" transform="translate(-249.5 -232.4)"/><path class="cls-1" d="M596.32,278a4.12,4.12,0,0,0-1.36-.27,2.28,2.28,0,0,0-1.41.44,2.09,2.09,0,0,0-.78,1.17v7.84h-3.16V275.07h2.45l.36,1.6h.1a2.89,2.89,0,0,1,2.77-1.87,4.59,4.59,0,0,1,1.43.27Z" transform="translate(-249.5 -232.4)"/><path class="cls-1" d="M604,282.18h-.85v5H600v-17h3.16v10l.73-.34,2.77-4.83h3.47l-2.91,4.61-1.24.92,1.34.95,3.28,5.66h-3.62Z" transform="translate(-249.5 -232.4)"/><path class="cls-1" d="M623.12,286.16a6,6,0,0,1-2,1,8.87,8.87,0,0,1-2.62.39,5.25,5.25,0,0,1-4.26-1.66,7.19,7.19,0,0,1-1.4-4.75,6.77,6.77,0,0,1,1.52-4.78,5.6,5.6,0,0,1,4.31-1.63,5.24,5.24,0,0,1,3.47,1.15,4.62,4.62,0,0,1,1.38,3.75,11.83,11.83,0,0,1-.24,2.31H616a3.5,3.5,0,0,0,.8,2.32,3.06,3.06,0,0,0,2.31.76,4.73,4.73,0,0,0,3-.92ZM616.06,280h4.52s0-.1,0-.19,0-.16,0-.19q0-2.33-2-2.33Q616.3,277.25,616.06,280Z" transform="translate(-249.5 -232.4)"/><path class="cls-1" d="M626.31,275.07H628v-2.28l3.16-.9v3.18h3v2.67h-3v4.66a4.61,4.61,0,0,0,.25,1.82,1,1,0,0,0,1,.53,3.91,3.91,0,0,0,1.63-.39l.56,2.43a7.69,7.69,0,0,1-3.3.75,3.16,3.16,0,0,1-2.46-.87,4.14,4.14,0,0,1-.79-2.82v-6.12h-1.67Z" transform="translate(-249.5 -232.4)"/><path class="cls-1" d="M638.18,270.43a2,2,0,0,1,1.43-.49,2.22,2.22,0,0,1,1.49.49,1.53,1.53,0,0,1,.57,1.21,1.46,1.46,0,0,1-.57,1.19,2.3,2.3,0,0,1-1.49.46,2.12,2.12,0,0,1-1.43-.46,1.5,1.5,0,0,1-.53-1.19A1.57,1.57,0,0,1,638.18,270.43Zm-.07,4.64h3.16v12.14h-3.16Z" transform="translate(-249.5 -232.4)"/><path class="cls-1" d="M653.64,287.21v-6.89a4,4,0,0,0-.44-2.14,1.59,1.59,0,0,0-1.43-.66,2.32,2.32,0,0,0-1.51.51,2.78,2.78,0,0,0-.9,1.31v7.87h-3.16V275.07h2.5l.36,1.6h.1a4.43,4.43,0,0,1,3.86-1.94,3.49,3.49,0,0,1,2.84,1.1,6.05,6.05,0,0,1,.92,3.82v7.55Z" transform="translate(-249.5 -232.4)"/><path class="cls-1" d="M671.54,287.21a5,5,0,0,1-1.41,3.87,5.8,5.8,0,0,1-4,1.27,9.38,9.38,0,0,1-4.27-.75l.66-2.5a8.76,8.76,0,0,0,3.13.66,3,3,0,0,0,2.21-.67,2.9,2.9,0,0,0,.63-2.05v-.78h-.1a3.53,3.53,0,0,1-3,1.14q-4.66,0-4.66-6a7,7,0,0,1,1.55-4.92,5.83,5.83,0,0,1,4.51-1.69,13.82,13.82,0,0,1,4.78.73Zm-3.16-4v-5.46a4.85,4.85,0,0,0-1.87-.32q-2.57,0-2.57,3.81a5.09,5.09,0,0,0,.58,2.69,1.87,1.87,0,0,0,1.68.92A2.11,2.11,0,0,0,668.38,283.23Z" transform="translate(-249.5 -232.4)"/><path class="cls-1" d="M682.78,275.77a12.32,12.32,0,0,1,5.1-.95,4.42,4.42,0,0,1,3.39,1.08,4.56,4.56,0,0,1,1,3.17q0,.83-.09,2.44t-.08,2.39a10.67,10.67,0,0,0,.44,3.33h-2.57l-.51-1.68h-.12a4,4,0,0,1-3.57,1.85,3.72,3.72,0,0,1-2.69-1,3.4,3.4,0,0,1-1-2.56q0-3.91,6.14-3.91c.41,0,.71,0,.92,0a5.66,5.66,0,0,0,0-.83,1.75,1.75,0,0,0-.43-1.32,2.08,2.08,0,0,0-1.44-.4,8.91,8.91,0,0,0-3.74.7Zm6.34,7.7v-1.58q-.63,0-.92,0-2.91,0-2.91,1.53a1.38,1.38,0,0,0,.4,1.06,1.55,1.55,0,0,0,1.1.38A2.43,2.43,0,0,0,689.12,283.47Z" transform="translate(-249.5 -232.4)"/><path class="cls-1" d="M702.94,287.21v-6.89a4,4,0,0,0-.44-2.14,1.59,1.59,0,0,0-1.43-.66,2.32,2.32,0,0,0-1.51.51,2.78,2.78,0,0,0-.9,1.31v7.87h-3.16V275.07H698l.36,1.6h.1a4.43,4.43,0,0,1,3.86-1.94,3.49,3.49,0,0,1,2.84,1.1,6.05,6.05,0,0,1,.92,3.82v7.55Z" transform="translate(-249.5 -232.4)"/><path class="cls-1" d="M719.66,282.94a30.27,30.27,0,0,0,.24,4.3h-2.26l-.44-1.58h-.1a3.78,3.78,0,0,1-3.54,1.89q-4.81,0-4.81-6.21a7.35,7.35,0,0,1,1.43-4.83,5,5,0,0,1,4.1-1.72,6.14,6.14,0,0,1,2.21.36v-4.93h3.16Zm-3.16.19V278a2.75,2.75,0,0,0-1.82-.53,2.3,2.3,0,0,0-2,.92,5.44,5.44,0,0,0-.66,3.06,4.79,4.79,0,0,0,.57,2.52,1.88,1.88,0,0,0,1.71.92A2.1,2.1,0,0,0,716.51,283.13Z" transform="translate(-249.5 -232.4)"/><path class="cls-1" d="M554.38,304.21h2.31l.36,1.46h.1a4.13,4.13,0,0,1,3.59-1.8,4.05,4.05,0,0,1,3.42,1.48,9.47,9.47,0,0,1-.32,9.55,5,5,0,0,1-4.1,1.78,4.89,4.89,0,0,1-2.21-.46v5h-3.16Zm3.16,4.18v5a2.79,2.79,0,0,0,1.8.58,2.31,2.31,0,0,0,2-1,5.64,5.64,0,0,0,.68-3.14q0-3.35-2.26-3.35A2.27,2.27,0,0,0,557.54,308.38Z" transform="translate(-249.5 -232.4)"/><path class="cls-1" d="M574.8,307.17a4.11,4.11,0,0,0-1.36-.27,2.28,2.28,0,0,0-1.41.44,2.09,2.09,0,0,0-.78,1.17v7.84H568.1V304.21h2.45l.36,1.6h.1a2.89,2.89,0,0,1,2.77-1.87,4.59,4.59,0,0,1,1.43.27Z" transform="translate(-249.5 -232.4)"/><path class="cls-1" d="M578.16,305.54a5.38,5.38,0,0,1,4.22-1.67,5.24,5.24,0,0,1,4.26,1.72,7.07,7.07,0,0,1,1.44,4.69,6.88,6.88,0,0,1-1.49,4.73,5.35,5.35,0,0,1-4.21,1.68,5.28,5.28,0,0,1-4.27-1.72,7,7,0,0,1-1.46-4.69A6.84,6.84,0,0,1,578.16,305.54Zm2.35,7.45a2,2,0,0,0,1.87,1q2.45,0,2.45-3.74t-2.45-3.74q-2.48,0-2.48,3.74A5.29,5.29,0,0,0,580.51,313Z" transform="translate(-249.5 -232.4)"/><path class="cls-1" d="M601.2,312.07a30.29,30.29,0,0,0,.24,4.3h-2.26l-.44-1.58h-.1a3.78,3.78,0,0,1-3.54,1.89q-4.81,0-4.81-6.21a7.35,7.35,0,0,1,1.43-4.83,5,5,0,0,1,4.1-1.72,6.14,6.14,0,0,1,2.21.36v-4.93h3.16Zm-3.16.19v-5.15a2.75,2.75,0,0,0-1.82-.53,2.3,2.3,0,0,0-2,.92,5.43,5.43,0,0,0-.66,3.06,4.79,4.79,0,0,0,.57,2.52,1.88,1.88,0,0,0,1.71.92A2.1,2.1,0,0,0,598,312.27Z" transform="translate(-249.5 -232.4)"/><path class="cls-1" d="M607.61,304.21v6.89a4.5,4.5,0,0,0,.38,2.15,1.43,1.43,0,0,0,1.35.64,2.43,2.43,0,0,0,2.38-1.84v-7.84h3.16v8.45a15.19,15.19,0,0,0,.39,3.69h-2.38l-.56-1.8h-.1a4.53,4.53,0,0,1-3.91,2.14,3.63,3.63,0,0,1-2.91-1.1,5.94,5.94,0,0,1-.95-3.82v-7.55Z" transform="translate(-249.5 -232.4)"/><path class="cls-1" d="M626.84,315.59a6.46,6.46,0,0,1-3.88,1.09q-5.29,0-5.29-6.41a7.2,7.2,0,0,1,1.4-4.73,4.93,4.93,0,0,1,4-1.67,7.7,7.7,0,0,1,3.62.78l-.75,2.57a5.4,5.4,0,0,0-2.36-.56q-2.67,0-2.67,3.62a4.38,4.38,0,0,0,.72,2.62,2.45,2.45,0,0,0,2.12,1,4.11,4.11,0,0,0,2.36-.7Z" transform="translate(-249.5 -232.4)"/><path class="cls-1" d="M628.1,304.21h1.68v-2.28l3.16-.9v3.18h3v2.67h-3v4.66a4.62,4.62,0,0,0,.25,1.82,1,1,0,0,0,1,.53,3.92,3.92,0,0,0,1.63-.39l.56,2.43a7.69,7.69,0,0,1-3.3.75,3.16,3.16,0,0,1-2.46-.87,4.14,4.14,0,0,1-.79-2.82v-6.12H628.1Z" transform="translate(-249.5 -232.4)"/><path class="cls-1" d="M638.76,299.57a2,2,0,0,1,1.43-.49,2.22,2.22,0,0,1,1.49.49,1.53,1.53,0,0,1,.57,1.21,1.46,1.46,0,0,1-.57,1.19,2.3,2.3,0,0,1-1.49.46,2.12,2.12,0,0,1-1.43-.46,1.5,1.5,0,0,1-.53-1.19A1.57,1.57,0,0,1,638.76,299.57Zm-.07,4.64h3.16v12.14h-3.16Z" transform="translate(-249.5 -232.4)"/><path class="cls-1" d="M646.51,305.54a5.39,5.39,0,0,1,4.22-1.67,5.24,5.24,0,0,1,4.26,1.72,7.07,7.07,0,0,1,1.44,4.69,6.88,6.88,0,0,1-1.49,4.73,5.35,5.35,0,0,1-4.21,1.68,5.28,5.28,0,0,1-4.27-1.72,7,7,0,0,1-1.46-4.69A6.84,6.84,0,0,1,646.51,305.54Zm2.36,7.45a2,2,0,0,0,1.87,1q2.45,0,2.45-3.74t-2.45-3.74q-2.48,0-2.48,3.74A5.29,5.29,0,0,0,648.86,313Z" transform="translate(-249.5 -232.4)"/><path class="cls-1" d="M666.66,316.35v-6.89a4,4,0,0,0-.44-2.14,1.59,1.59,0,0,0-1.43-.66,2.32,2.32,0,0,0-1.5.51,2.78,2.78,0,0,0-.9,1.31v7.87h-3.16V304.21h2.5l.36,1.6h.1a4.43,4.43,0,0,1,3.86-1.94,3.49,3.49,0,0,1,2.84,1.1,6.05,6.05,0,0,1,.92,3.82v7.55Z" transform="translate(-249.5 -232.4)"/><path class="cls-1" d="M679.75,304.91a12.31,12.31,0,0,1,5.1-.95,4.43,4.43,0,0,1,3.39,1.08,4.56,4.56,0,0,1,1,3.17q0,.83-.08,2.44T689,313a10.7,10.7,0,0,0,.44,3.33h-2.57l-.51-1.68h-.12a4,4,0,0,1-3.57,1.85,3.72,3.72,0,0,1-2.69-1,3.4,3.4,0,0,1-1-2.56q0-3.91,6.14-3.91c.4,0,.71,0,.92,0a5.68,5.68,0,0,0,0-.83,1.75,1.75,0,0,0-.42-1.32,2.09,2.09,0,0,0-1.45-.4,8.91,8.91,0,0,0-3.74.7Zm6.34,7.7V311q-.63,0-.92,0-2.91,0-2.91,1.53a1.38,1.38,0,0,0,.4,1.06,1.55,1.55,0,0,0,1.1.38A2.43,2.43,0,0,0,686.08,312.61Z" transform="translate(-249.5 -232.4)"/><path class="cls-1" d="M702.74,316.35a5,5,0,0,1-1.41,3.87,5.81,5.81,0,0,1-4,1.27,9.38,9.38,0,0,1-4.27-.75l.66-2.5a8.76,8.76,0,0,0,3.13.66,3,3,0,0,0,2.21-.67,2.9,2.9,0,0,0,.63-2.05v-.78h-.1a3.53,3.53,0,0,1-3,1.14q-4.66,0-4.66-6a7,7,0,0,1,1.55-4.92,5.84,5.84,0,0,1,4.52-1.69,13.83,13.83,0,0,1,4.78.73Zm-3.16-4V306.9a4.85,4.85,0,0,0-1.87-.32q-2.57,0-2.57,3.81a5.09,5.09,0,0,0,.58,2.69,1.87,1.87,0,0,0,1.67.92A2.11,2.11,0,0,0,699.58,312.36Z" transform="translate(-249.5 -232.4)"/><path class="cls-1" d="M715.8,315.3a6,6,0,0,1-2,1,8.88,8.88,0,0,1-2.62.39,5.25,5.25,0,0,1-4.26-1.66,7.19,7.19,0,0,1-1.4-4.75,6.77,6.77,0,0,1,1.52-4.78,5.6,5.6,0,0,1,4.31-1.63,5.24,5.24,0,0,1,3.47,1.15,4.62,4.62,0,0,1,1.38,3.75,11.75,11.75,0,0,1-.24,2.31h-7.28a3.5,3.5,0,0,0,.8,2.32,3.06,3.06,0,0,0,2.31.76,4.73,4.73,0,0,0,3-.92Zm-7.06-6.19h4.52s0-.1,0-.19,0-.16,0-.19q0-2.33-2-2.33Q709,306.39,708.74,309.11Z" transform="translate(-249.5 -232.4)"/><path class="cls-1" d="M726.46,316.35v-6.89a4,4,0,0,0-.44-2.14,1.59,1.59,0,0,0-1.43-.66,2.32,2.32,0,0,0-1.5.51,2.78,2.78,0,0,0-.9,1.31v7.87H719V304.21h2.5l.36,1.6h.1a4.43,4.43,0,0,1,3.86-1.94,3.49,3.49,0,0,1,2.84,1.1,6.05,6.05,0,0,1,.92,3.82v7.55Z" transform="translate(-249.5 -232.4)"/><path class="cls-1" d="M741.47,315.59a6.46,6.46,0,0,1-3.88,1.09q-5.29,0-5.29-6.41a7.2,7.2,0,0,1,1.4-4.73,4.93,4.93,0,0,1,4-1.67,7.71,7.71,0,0,1,3.62.78l-.75,2.57a5.39,5.39,0,0,0-2.35-.56q-2.67,0-2.67,3.62a4.39,4.39,0,0,0,.72,2.62,2.45,2.45,0,0,0,2.12,1,4.11,4.11,0,0,0,2.35-.7Z" transform="translate(-249.5 -232.4)"/><path class="cls-1" d="M748,311l.44,1.89h.15l.32-1.92,1.84-6.8H754l-3.69,10.95q-.44,1.31-.72,2.06t-.7,1.65a6.13,6.13,0,0,1-.83,1.36,3.62,3.62,0,0,1-1,.78,2.43,2.43,0,0,1-1.21.32,4.19,4.19,0,0,1-2-.41l.58-2.52a1.94,1.94,0,0,0,.73.15q1.38,0,1.87-2.19L742,304.21h3.79Z" transform="translate(-249.5 -232.4)"/><path class="cls-1" d="M639.32,476.26c0,5.91,4,9,10.93,9,8.42,0,13.44-5.76,13.44-13.29V467.4H651.28C644.19,467.4,639.32,470.5,639.32,476.26Z" transform="translate(-249.5 -232.4)"/><path class="cls-1" d="M436.55,360.49c10.63,0,15.21-8.57,15.21-19.35s-4.58-19.35-15.21-19.35-15.36,8.71-15.36,19.35S425.77,360.49,436.55,360.49Z" transform="translate(-249.5 -232.4)"/><path class="cls-1" d="M766.71,352.4H534.8a6.8,6.8,0,0,1-6.8-6.8V239.2a6.8,6.8,0,0,0-6.8-6.8H256.3a6.8,6.8,0,0,0-6.8,6.8V436.88a6.8,6.8,0,0,0,6.8,6.8h78.41a6.8,6.8,0,0,1,6.8,6.8v78.41a6.8,6.8,0,0,0,6.8,6.8H766.71a6.8,6.8,0,0,0,6.8-6.8V359.2A6.8,6.8,0,0,0,766.71,352.4ZM436.55,300.82c24.66,0,40.91,15.51,40.91,40.32s-16.25,40.32-40.91,40.32S395.49,366,395.49,341.14,412,300.82,436.55,300.82Zm-94.67,80.64c-33.67,0-52.13-21.86-52.13-54.65,0-32.34,18.46-54.65,52.13-54.65,25.26,0,41.06,13.88,44.9,33.82H358.42c-1.92-6.35-7.83-9.6-16.69-9.6-15.36,0-23.93,12-23.93,30.42,0,18.76,8.57,30.87,24.37,30.87,12.41,0,19.49-7.09,19.94-16.69H341.73V319.28h47.56v13.44C389.28,357.53,375.7,381.46,341.88,381.46ZM455.41,502.26H417.69L388.15,394.88h28.5l19.94,80.9h.5l19.79-80.9H484.8Zm72.41,0h-25.7v-76.8h25.7Zm0-86h-25.7V394.88h25.7Zm77.09,32.94h-8.12c-16.54,0-22.89,8-22.89,22.15v30.87H548.2v-76.8H573v8.27h.14c1.62-2.81,10.65-8.27,23.64-8.27h8.12Zm83.44,53H664.87v-5.91h-.14c-4.58,5.17-14.34,7.83-24.23,7.83-17,0-26.88-12.26-26.88-25.85,0-12,9-25.55,32.34-25.55h17.72v-1.33c0-7.24-4-9.75-10.49-9.75s-9.6,2.51-10.19,6.65h-25.4c.44-14.92,14.47-24.81,34.12-24.81,21.71,0,36.63,7.68,36.63,30.28Zm45.19,0h-25.7V394.88h25.7Z" transform="translate(-249.5 -232.4)"/></svg>